<svg width="524" height="39" viewBox="0 0 524 39" fill="none" xmlns="http://www.w3.org/2000/svg">
<rect width="523.731" height="38.1398" transform="translate(0 0.430176)" fill="#CB81FF"/>
<path d="M10.0277 7.87646H13.309L19.476 24.3267L25.6283 7.87646H28.9096L20.765 29.2046H18.1576L10.0277 7.87646ZM8.5336 7.87646H11.6537L12.1957 22.1147V29.2046H8.5336V7.87646ZM27.2836 7.87646H30.4184V29.2046H26.7416V22.1147L27.2836 7.87646ZM48.7436 26.2896V29.2046H37.4203V26.2896H48.7436ZM38.4604 7.87646V29.2046H34.7836V7.87646H38.4604ZM47.2641 16.7827V19.6538H37.4203V16.7827H47.2641ZM48.6703 7.87646V10.8062H37.4203V7.87646H48.6703ZM58.2211 19.9761L50.3256 7.87646H54.7934L59.9936 16.7974H63.8315L63.3188 19.9761H58.2211ZM60.0522 19.5073L54.4565 29.2046H49.8861L57.3129 17.0171L60.0522 19.5073ZM65.9555 7.87646V29.2046H62.2934V7.87646H65.9555ZM77.7768 7.87646L69.9398 19.9761H64.9154L64.4027 16.7974H68.1674L73.2943 7.87646H77.7768ZM73.6313 29.2046L68.1234 19.5073L70.8773 17.0171L78.2016 29.2046H73.6313ZM94.1244 7.87646V10.8062H84.2221V29.2046H80.56V7.87646H94.1244ZM102.591 10.7183L96.2191 29.2046H92.3666L100.394 7.87646H102.855L102.591 10.7183ZM107.923 29.2046L101.537 10.7183L101.258 7.87646H103.734L111.79 29.2046H107.923ZM107.616 21.2944V24.2095H96.0141V21.2944H107.616ZM128.431 7.87646V10.8062H118.206V7.87646H128.431ZM131.244 7.87646V29.2046H127.567V7.87646H131.244ZM117.474 7.87646H121.121L120.609 18.4673C120.54 20.02 120.409 21.3872 120.213 22.5688C120.018 23.7505 119.754 24.7612 119.422 25.6011C119.09 26.4409 118.67 27.1294 118.163 27.6665C117.655 28.1938 117.044 28.5845 116.331 28.8384C115.628 29.0825 114.803 29.2046 113.856 29.2046H112.918V26.2896L113.49 26.2456C114.007 26.2065 114.452 26.0845 114.823 25.8794C115.204 25.6646 115.526 25.3521 115.789 24.9419C116.053 24.522 116.273 23.98 116.449 23.3159C116.624 22.6519 116.761 21.8413 116.859 20.8843C116.966 19.9272 117.044 18.8091 117.093 17.5298L117.474 7.87646ZM144.222 10.7183L137.85 29.2046H133.997L142.025 7.87646H144.486L144.222 10.7183ZM149.554 29.2046L143.167 10.7183L142.889 7.87646H145.365L153.421 29.2046H149.554ZM149.246 21.2944V24.2095H137.645V21.2944H149.246ZM159.544 7.87646V29.2046H155.882V7.87646H159.544ZM172.376 7.87646L163.704 20.0347H158.504L158.006 16.8413H161.668L167.879 7.87646H172.376ZM168.626 29.2046L161.727 19.478L164.1 16.6509L173.036 29.2046H168.626ZM183.919 7.87646V29.2046H180.272V7.87646H183.919ZM190.614 7.87646V10.8062H173.636V7.87646H190.614ZM197.059 23.2134L206.522 7.87646H210.199V29.2046H206.522V13.853L197.059 29.2046H193.397V7.87646H197.059V23.2134ZM214.154 7.87646H217.83V14.4829C217.83 15.4888 217.982 16.2798 218.285 16.856C218.587 17.4224 219.046 17.8228 219.662 18.0571C220.287 18.2915 221.063 18.4087 221.991 18.4087C222.44 18.4087 222.913 18.3892 223.412 18.3501C223.91 18.311 224.408 18.2573 224.906 18.189C225.413 18.1108 225.902 18.0229 226.371 17.9253C226.839 17.8179 227.269 17.7007 227.66 17.5737V20.4888C227.279 20.606 226.859 20.7183 226.4 20.8257C225.951 20.9331 225.482 21.0259 224.994 21.104C224.505 21.1724 224.007 21.2261 223.499 21.2651C222.992 21.3042 222.489 21.3237 221.991 21.3237C220.379 21.3237 218.988 21.0942 217.816 20.6353C216.644 20.1665 215.741 19.4292 215.106 18.4233C214.471 17.4175 214.154 16.104 214.154 14.4829V7.87646ZM226.825 7.87646H230.501V29.2046H226.825V7.87646ZM248.871 26.2896V29.2046H237.547V26.2896H248.871ZM238.587 7.87646V29.2046H234.911V7.87646H238.587ZM247.391 16.7827V19.6538H237.547V16.7827H247.391ZM248.797 7.87646V10.8062H237.547V7.87646H248.797ZM264.471 22.2612H268.133C268.016 23.6577 267.625 24.9028 266.961 25.9966C266.297 27.0806 265.365 27.9351 264.163 28.5601C262.962 29.1851 261.502 29.4976 259.784 29.4976C258.465 29.4976 257.279 29.2632 256.224 28.7944C255.169 28.3159 254.266 27.6421 253.514 26.7729C252.762 25.894 252.186 24.8345 251.786 23.5942C251.395 22.354 251.2 20.9673 251.2 19.4341V17.6616C251.2 16.1284 251.4 14.7417 251.8 13.5015C252.21 12.2612 252.796 11.2017 253.558 10.3228C254.32 9.43408 255.233 8.75537 256.297 8.28662C257.371 7.81787 258.578 7.5835 259.915 7.5835C261.615 7.5835 263.05 7.896 264.222 8.521C265.394 9.146 266.302 10.0103 266.947 11.1138C267.601 12.2173 268.001 13.4819 268.148 14.9077H264.486C264.388 13.9897 264.173 13.2036 263.841 12.5493C263.519 11.895 263.04 11.397 262.406 11.0552C261.771 10.7036 260.941 10.5278 259.915 10.5278C259.076 10.5278 258.343 10.6841 257.718 10.9966C257.093 11.3091 256.571 11.7681 256.151 12.3735C255.731 12.979 255.413 13.7261 255.199 14.6147C254.994 15.4937 254.891 16.4995 254.891 17.6323V19.4341C254.891 20.5083 254.984 21.4849 255.169 22.3638C255.365 23.2329 255.658 23.98 256.048 24.605C256.449 25.23 256.956 25.7134 257.572 26.0552C258.187 26.397 258.924 26.5679 259.784 26.5679C260.829 26.5679 261.673 26.4019 262.318 26.0698C262.972 25.7378 263.465 25.2544 263.797 24.6196C264.139 23.9751 264.364 23.189 264.471 22.2612ZM275.208 7.87646V29.2046H271.546V7.87646H275.208ZM288.04 7.87646L279.369 20.0347H274.168L273.67 16.8413H277.332L283.543 7.87646H288.04ZM284.29 29.2046L277.391 19.478L279.764 16.6509L288.7 29.2046H284.29ZM299.115 10.7183L292.743 29.2046H288.89L296.917 7.87646H299.378L299.115 10.7183ZM304.447 29.2046L298.06 10.7183L297.782 7.87646H300.257L308.314 29.2046H304.447ZM304.139 21.2944V24.2095H292.538V21.2944H304.139ZM322.259 21.2065H316.385L314.935 20.606C313.324 20.0981 312.088 19.3267 311.229 18.2915C310.37 17.2563 309.94 15.9526 309.94 14.3804C309.94 12.9741 310.252 11.7876 310.877 10.8208C311.502 9.854 312.391 9.12158 313.543 8.62354C314.705 8.12549 316.078 7.87646 317.66 7.87646H324.823V29.2046H321.131V10.8062H317.66C316.292 10.8062 315.277 11.1382 314.613 11.8022C313.949 12.4663 313.617 13.3843 313.617 14.5562C313.617 15.3569 313.763 16.0454 314.056 16.6216C314.359 17.188 314.803 17.6274 315.389 17.9399C315.985 18.2427 316.722 18.394 317.601 18.394H322.259V21.2065ZM317.777 19.5659L312.826 29.2046H308.871L313.88 19.5659H317.777ZM344.876 10.7183L338.504 29.2046H334.652L342.679 7.87646H345.14L344.876 10.7183ZM350.208 29.2046L343.822 10.7183L343.543 7.87646H346.019L354.076 29.2046H350.208ZM349.901 21.2944V24.2095H338.299V21.2944H349.901ZM370.555 16.7827V19.6978H359.232V16.7827H370.555ZM360.14 7.87646V29.2046H356.463V7.87646H360.14ZM373.382 7.87646V29.2046H369.72V7.87646H373.382ZM386.331 10.7183L379.959 29.2046H376.107L384.134 7.87646H386.595L386.331 10.7183ZM391.663 29.2046L385.277 10.7183L384.998 7.87646H387.474L395.531 29.2046H391.663ZM391.356 21.2944V24.2095H379.754V21.2944H391.356ZM412.171 7.87646V10.8062H401.947V7.87646H412.171ZM414.984 7.87646V29.2046H411.307V7.87646H414.984ZM401.214 7.87646H404.862L404.349 18.4673C404.281 20.02 404.149 21.3872 403.954 22.5688C403.758 23.7505 403.495 24.7612 403.163 25.6011C402.83 26.4409 402.411 27.1294 401.903 27.6665C401.395 28.1938 400.785 28.5845 400.072 28.8384C399.369 29.0825 398.543 29.2046 397.596 29.2046H396.659V26.2896L397.23 26.2456C397.747 26.2065 398.192 26.0845 398.563 25.8794C398.944 25.6646 399.266 25.3521 399.53 24.9419C399.793 24.522 400.013 23.98 400.189 23.3159C400.365 22.6519 400.501 21.8413 400.599 20.8843C400.706 19.9272 400.785 18.8091 400.833 17.5298L401.214 7.87646ZM423.026 23.2134L432.489 7.87646H436.165V29.2046H432.489V13.853L423.026 29.2046H419.364V7.87646H423.026V23.2134ZM448.91 7.87646V29.2046H445.262V7.87646H448.91ZM455.604 7.87646V10.8062H438.626V7.87646H455.604ZM462.049 23.2134L471.512 7.87646H475.189V29.2046H471.512V13.853L462.049 29.2046H458.387V7.87646H462.049V23.2134ZM483.333 7.87646V29.2046H479.671V7.87646H483.333ZM496.165 7.87646L487.494 20.0347H482.293L481.795 16.8413H485.457L491.668 7.87646H496.165ZM492.415 29.2046L485.516 19.478L487.889 16.6509L496.825 29.2046H492.415ZM507.24 10.7183L500.868 29.2046H497.015L505.042 7.87646H507.503L507.24 10.7183ZM512.572 29.2046L506.185 10.7183L505.907 7.87646H508.382L516.439 29.2046H512.572ZM512.264 21.2944V24.2095H500.663V21.2944H512.264Z" fill="#201B10"/>
</svg>
